<mxfile host="app.diagrams.net" modified="2020-11-01T13:38:03.175Z" agent="5.0 (Macintosh; Intel Mac OS X 10_15_6) AppleWebKit/537.36 (KHTML, like Gecko) Chrome/86.0.4240.111 Safari/537.36" etag="YCduIaj4fZuJxTY5vhvS" version="13.8.8" type="github">
  <diagram id="YPQQsxZ7Voc7GXTDiuSb" name="Page-1">
    <mxGraphModel dx="786" dy="514" grid="1" gridSize="10" guides="1" tooltips="1" connect="1" arrows="1" fold="1" page="1" pageScale="1" pageWidth="850" pageHeight="1100" math="0" shadow="0">
      <root>
        <mxCell id="0" />
        <mxCell id="1" parent="0" />
        <mxCell id="o7PwPkeCVYaqXk9FkGq4-14" style="edgeStyle=orthogonalEdgeStyle;rounded=0;orthogonalLoop=1;jettySize=auto;html=1;exitX=1;exitY=0.5;exitDx=0;exitDy=0;entryX=0;entryY=0.5;entryDx=0;entryDy=0;" edge="1" parent="1" source="o7PwPkeCVYaqXk9FkGq4-1" target="o7PwPkeCVYaqXk9FkGq4-10">
          <mxGeometry relative="1" as="geometry" />
        </mxCell>
        <mxCell id="o7PwPkeCVYaqXk9FkGq4-1" value="DB" style="rounded=1;whiteSpace=wrap;html=1;" vertex="1" parent="1">
          <mxGeometry x="40" y="230" width="120" height="60" as="geometry" />
        </mxCell>
        <mxCell id="o7PwPkeCVYaqXk9FkGq4-16" style="edgeStyle=orthogonalEdgeStyle;rounded=0;orthogonalLoop=1;jettySize=auto;html=1;exitX=1;exitY=0.5;exitDx=0;exitDy=0;entryX=0;entryY=0.5;entryDx=0;entryDy=0;" edge="1" parent="1" source="o7PwPkeCVYaqXk9FkGq4-10" target="o7PwPkeCVYaqXk9FkGq4-11">
          <mxGeometry relative="1" as="geometry" />
        </mxCell>
        <mxCell id="o7PwPkeCVYaqXk9FkGq4-10" value="&amp;lt;Interface&amp;gt;&lt;br&gt;DB_Name_Repository" style="rounded=1;whiteSpace=wrap;html=1;" vertex="1" parent="1">
          <mxGeometry x="240" y="230" width="120" height="60" as="geometry" />
        </mxCell>
        <mxCell id="o7PwPkeCVYaqXk9FkGq4-17" style="edgeStyle=orthogonalEdgeStyle;rounded=0;orthogonalLoop=1;jettySize=auto;html=1;entryX=0;entryY=0.5;entryDx=0;entryDy=0;" edge="1" parent="1" source="o7PwPkeCVYaqXk9FkGq4-11" target="o7PwPkeCVYaqXk9FkGq4-13">
          <mxGeometry relative="1" as="geometry" />
        </mxCell>
        <mxCell id="o7PwPkeCVYaqXk9FkGq4-11" value="DB_Service" style="rounded=1;whiteSpace=wrap;html=1;" vertex="1" parent="1">
          <mxGeometry x="450" y="230" width="110" height="60" as="geometry" />
        </mxCell>
        <mxCell id="o7PwPkeCVYaqXk9FkGq4-15" style="edgeStyle=orthogonalEdgeStyle;rounded=0;orthogonalLoop=1;jettySize=auto;html=1;exitX=0.5;exitY=1;exitDx=0;exitDy=0;entryX=0.5;entryY=0;entryDx=0;entryDy=0;" edge="1" parent="1" source="o7PwPkeCVYaqXk9FkGq4-12" target="o7PwPkeCVYaqXk9FkGq4-10">
          <mxGeometry relative="1" as="geometry" />
        </mxCell>
        <mxCell id="o7PwPkeCVYaqXk9FkGq4-12" value="&amp;lt;interface&amp;gt;&lt;br&gt;JpaRepository" style="rounded=1;whiteSpace=wrap;html=1;" vertex="1" parent="1">
          <mxGeometry x="240" y="100" width="120" height="60" as="geometry" />
        </mxCell>
        <mxCell id="o7PwPkeCVYaqXk9FkGq4-13" value="AppController" style="rounded=1;whiteSpace=wrap;html=1;" vertex="1" parent="1">
          <mxGeometry x="640" y="230" width="120" height="60" as="geometry" />
        </mxCell>
      </root>
    </mxGraphModel>
  </diagram>
</mxfile>
